<svg xmlns="http://www.w3.org/2000/svg" width="137" height="30" viewBox="0 0 137 30">
    <g fill="#718886" fill-rule="nonzero">
        <path d="M51.606 26V14.495h6.788V26H61V12H49v14zM69.725 21.886h4.034c7.006 0 6.97-9.886 0-9.886-2.265 0-4.494.035-6.759.035V26h2.69v-4.114h.035zm0-7.363h4.034c3.432 0 3.467 4.944 0 4.944h-4.034v-4.944zM86.207 23.366h7.586L95.016 26H98l-6.508-14h-2.984L82 26h2.984l1.223-2.634zm3.811-8.42l2.697 5.96H87.32l2.697-5.96zM113 21.876c0-.866-.593-2.633-2.267-3.119a2.817 2.817 0 0 0 1.814-2.703c0-2.806-2.059-4.054-4.85-4.054H101v14h6.698c2.965 0 5.302-.97 5.302-4.124zm-9.314-7.45h4.081c1.71 0 2.233 1.074 2.233 1.732 0 .797-.558 1.49-2.233 1.49h-4.081v-3.222zm0 5.544h4.081c1.082 0 2.652.659 2.652 1.906 0 1.317-1.535 1.698-2.652 1.698h-4.081V19.97zM124.518 27c5.132 0 7.445-3.705 7.482-7.447.036-3.74-2.458-7.553-7.482-7.553S117 15.812 117 19.59c0 3.776 2.385 7.41 7.518 7.41zm0-12.542c3.434 0 4.807 2.708 4.77 5.131-.035 2.352-1.336 4.917-4.77 4.917-3.434 0-4.735-2.53-4.807-4.881-.036-2.459 1.373-5.202 4.807-5.167zM33.273 19H29v5h4.273c3.636.035 3.636-5 0-5z"/>
        <path d="M0 9v21h137V9H0zm22.052 17.743h-2.66v-10.12l-4.586 6.065h-.525l-4.48-6.099v10.119H7.14v-13.93h3.045l4.41 5.994 4.41-5.995h3.046v13.966zm11.165-.035c-2.205 0-4.41-.035-6.65-.035V12.708h10.116v2.426h-7.456v1.732h3.99c6.896 0 6.896 9.842 0 9.842zm102.873 2.391H44.663V9.901h91.427v19.198zM3.233 4l-.3-.767H1.1L.8 4H0l1.567-4h.866L4 4h-.767zM2.033.7l-.7 1.9h1.434L2.033.7zM6 3.627c.423-.035.65-.212.78-1.48L7.008 0h2.634v3.556H10V5h-.683v-.775H6.715V5h-.682L6 3.627zm.943-.07h2.049V.633H7.659l-.163 1.55c-.033.527-.228 1.02-.553 1.372zM11 4V0h1.862c.695 0 1.073.467 1.073 1a.856.856 0 0 1-.663.9c.442.1.726.5.726.967.032.566-.41 1.066-.946 1.066h-.158L11 4zm2.24-2.867A.53.53 0 0 0 12.768.6h-1.136v1.033h1.073a.496.496 0 0 0 .537-.433v-.067zm.096 1.667c0-.3-.221-.533-.505-.567h-1.137v1.1h1.073a.51.51 0 0 0 .569-.466V2.8zM16 1.967c0-1.114.918-1.999 2.032-1.966 1.115 0 2 .918 1.967 2.032 0 1.081-.918 1.966-2 1.966A1.94 1.94 0 0 1 16 2.131v-.164zm3.31 0c0-.82-.524-1.409-1.31-1.409-.787 0-1.312.623-1.312 1.41 0 .786.492 1.408 1.312 1.408.82 0 1.31-.59 1.31-1.409zM24.196 4l-1.237-1.667-.31.4V4H22V0h.65v1.9L24.102 0h.804l-1.515 1.867L25 3.967h-.804zM29.233 4l-.3-.767H27.1L26.8 4H26l1.567-4h.866L30 4h-.767zm-1.2-3.3l-.7 1.9h1.434L28.033.7zM32.161 4V.633H31V0h3v.633h-1.161V4zM35.001 1.998c-.036-1.063.9-1.966 2.09-1.998h.18c.72 0 1.369.322 1.729.87l-.648.29c-.217-.354-.649-.548-1.081-.548-.865.065-1.513.71-1.441 1.483.036.709.684 1.257 1.44 1.29.433 0 .865-.226 1.082-.549l.648.29c-.36.548-1.009.87-1.73.87-1.188.065-2.197-.773-2.269-1.837V2zM42.196 4l-1.237-1.667-.31.4V4H40V0h.65v1.9L42.102 0h.804l-1.515 1.867L43 3.967h-.804zM45.024 1.967c0-1.114.913-1.999 2.02-1.966C48.152 0 49.032.919 49 2.033c0 1.081-.912 1.966-1.987 1.966a1.932 1.932 0 0 1-1.988-1.868c-.032-.065-.032-.131 0-.164zm3.258 0c0-.82-.52-1.409-1.303-1.409-.782 0-1.303.623-1.303 1.41 0 .786.489 1.408 1.303 1.408.815 0 1.303-.59 1.303-1.409zM50 3.967V0h3v.628h-2.232v1.025h2.195v.628h-2.195v1.09H53V4zM59.673 0v.633h-1.989V1.5h1.043c.685-.033 1.239.5 1.272 1.2.032.7-.49 1.267-1.174 1.3H57V0h2.673zm-1.989 2.1v1.267h.946a.649.649 0 0 0 .684-.567c.033-.333-.228-.667-.554-.7h-1.076zM63.464 2.304h-.695V3.97H62V.126h.769v1.57h.695C63.647.606 64.818-.163 66.063.03c1.244.16 2.123 1.185 1.903 2.274-.183 1.09-1.354 1.859-2.599 1.666-.951-.128-1.72-.833-1.903-1.666zm3.66-.256c0-.801-.585-1.378-1.464-1.378-.878 0-1.464.61-1.464 1.378 0 .769.55 1.378 1.464 1.378.915 0 1.501-.577 1.464-1.378zM69 3.967V0h1.733C71.433 0 72 .562 72 1.256a1.26 1.26 0 0 1-1.267 1.256h-1.066V4L69 3.967zm2.333-2.71A.63.63 0 0 0 70.7.627h-1v1.256h.933c.334.033.667-.231.7-.562v-.066zM73 1.967c0-1.114.918-1.999 2.032-1.966 1.115 0 2 .918 1.967 2.032 0 1.081-.918 1.966-2 1.966A1.94 1.94 0 0 1 73 2.131v-.164zm3.31 0c0-.82-.524-1.409-1.31-1.409-.787 0-1.312.623-1.312 1.41 0 .786.492 1.408 1.312 1.408.82 0 1.31-.59 1.31-1.409z"/>
    </g>
</svg>
