<svg xmlns="http://www.w3.org/2000/svg" width="137" height="30" viewBox="0 0 137 30">
    <g fill="#D41319" fill-rule="nonzero">
        <path d="M51.6 26.337V14.756H58.5v11.581h2.648V12.244H48.952v14.093zM69.126 22.151h3.972c6.898 0 6.863-9.977 0-9.977-2.23 0-4.425.035-6.655.035v14.093h2.648v-4.15h.035zm0-7.43h3.972c3.38 0 3.414 4.988 0 4.988h-3.972v-4.988zM85.501 23.651h7.352l1.184 2.651h2.892L90.623 12.21H87.73l-6.306 14.093h2.892l1.184-2.65zm3.693-8.477l2.614 6H86.58l2.613-6zM112.608 22.151c0-.872-.592-2.651-2.265-3.14 1.115-.418 1.847-1.534 1.812-2.72 0-2.826-2.056-4.082-4.843-4.082h-6.69v14.093h6.69c2.962 0 5.296-.976 5.296-4.15zm-9.303-7.5h4.077c1.707 0 2.23 1.082 2.23 1.744 0 .803-.558 1.5-2.23 1.5h-4.077v-3.244zm0 5.582h4.077c1.08 0 2.648.662 2.648 1.918 0 1.326-1.533 1.71-2.648 1.71h-4.077v-3.628zM124.14 26.651c4.948 0 7.178-3.628 7.213-7.29.035-3.663-2.37-7.396-7.212-7.396-4.843 0-7.248 3.733-7.248 7.43 0 3.698 2.3 7.256 7.248 7.256zm0-12.279c3.31 0 4.634 2.651 4.6 5.023-.035 2.303-1.29 4.814-4.6 4.814-3.31 0-4.564-2.476-4.633-4.779-.035-2.407 1.324-5.093 4.634-5.058zM33.065 18.942h-3.972v4.953h3.972c3.38.035 3.38-4.953 0-4.953z"/>
        <path d="M0 8.616v21.14h136.37V8.616H0zm21.95 17.86h-2.648V16.292l-4.564 6.104h-.523l-4.46-6.14v10.187H7.109V12.419h3.03l4.39 6.034 4.391-6.034h3.031v14.058zm11.115-.034c-2.195 0-4.39-.035-6.62-.035V12.349h10.069v2.442h-7.421v1.744h3.972c6.863 0 6.863 9.907 0 9.907zm102.399 2.407H44.458V9.523h91.006V28.85zM3.798 4.465l-.314-.802H1.568l-.314.802H.418L2.056.28h.906l1.637 4.186h-.801zM2.543 1.012L1.812 3H3.31l-.767-1.988zM5.61 3.872c.452-.035.696-.21.836-1.465L6.69.279h2.822v3.523h.383v1.43h-.732v-.767H6.376v.768h-.732l-.035-1.36zm1.01-.07h2.195V.907H7.386l-.174 1.535a2.121 2.121 0 0 1-.592 1.36zM11.254 4.465V.28h2.055c.767 0 1.185.488 1.185 1.047.035.453-.279.837-.732.941.488.105.802.524.802 1.012a1.065 1.065 0 0 1-1.045 1.116h-.175l-2.09.07zm2.474-3a.566.566 0 0 0-.523-.558h-1.254v1.081h1.184a.541.541 0 0 0 .593-.453v-.07zm.104 1.744c0-.314-.244-.558-.557-.593H12.02v1.151h1.185a.555.555 0 0 0 .627-.488v-.07zM15.923 2.372c0-1.186.975-2.128 2.16-2.093 1.184 0 2.125.977 2.09 2.163 0 1.151-.975 2.093-2.125 2.093a2.063 2.063 0 0 1-2.125-1.988v-.175zm3.519 0c0-.872-.558-1.5-1.394-1.5-.836 0-1.394.663-1.394 1.5s.523 1.5 1.394 1.5c.871 0 1.394-.628 1.394-1.5zM24.18 4.465l-1.394-1.744-.348.419v1.325h-.732V.28h.732v1.988L24.076.28h.905l-1.707 1.954 1.812 2.197h-.906zM29.267 4.465l-.314-.802h-1.916l-.314.802h-.836L27.525.28h.906l1.637 4.186h-.801zm-1.254-3.453L27.28 3h1.498l-.766-1.988zM31.95 4.465V.942h-1.255V.279h3.24v.663h-1.254v3.523zM35.016 2.372A2.1 2.1 0 0 1 37.21.21c.697 0 1.324.35 1.672.942l-.627.314c-.209-.384-.627-.593-1.045-.593-.836.07-1.464.768-1.394 1.605.035.767.662 1.36 1.394 1.395a1.26 1.26 0 0 0 1.045-.593l.627.314a1.915 1.915 0 0 1-1.672.942c-1.15.07-2.126-.837-2.195-1.988v-.175zM42.75 4.465l-1.393-1.744-.348.419v1.325h-.732V.28h.732v1.988L42.646.28h.906l-1.707 1.954 1.811 2.197h-.905zM44.458 2.372c0-1.186.975-2.128 2.16-2.093 1.185 0 2.125.977 2.09 2.163 0 1.151-.975 2.093-2.125 2.093a2.063 2.063 0 0 1-2.125-1.988c-.035-.07-.035-.14 0-.175zm3.484 0c0-.872-.557-1.5-1.394-1.5-.836 0-1.393.663-1.393 1.5s.522 1.5 1.393 1.5 1.394-.628 1.394-1.5zM50.207 4.465V.28h2.857v.663h-2.126v1.081h2.09v.663h-2.09v1.151h2.126V4.5zM59.858.28v.662h-2.126v.907h1.115c.732-.035 1.324.523 1.36 1.256a1.296 1.296 0 0 1-1.255 1.36H57V.28h2.857zm-2.126 2.197v1.325h1.01a.69.69 0 0 0 .733-.593c.034-.349-.244-.697-.593-.732h-1.15zM62.994 2.651h-.662v1.814H61.6V.28h.732v1.71h.662C63.168.801 64.283-.036 65.467.173c1.185.175 2.021 1.291 1.812 2.477-.174 1.186-1.29 2.023-2.474 1.814-.906-.14-1.637-.907-1.811-1.814zm3.484-.279c0-.872-.558-1.5-1.394-1.5-.836 0-1.394.663-1.394 1.5s.523 1.5 1.394 1.5c.871 0 1.429-.628 1.394-1.5zM68.742 4.465V.28h1.812c.732 0 1.324.593 1.324 1.326 0 .732-.592 1.325-1.324 1.325H69.44V4.5l-.697-.035zm2.44-2.86a.662.662 0 0 0-.663-.663h-1.045v1.325h.976a.69.69 0 0 0 .731-.593v-.07zM73.167 2.372c0-1.186.976-2.128 2.16-2.093 1.185 0 2.126.977 2.091 2.163 0 1.151-.976 2.093-2.125 2.093a2.063 2.063 0 0 1-2.126-1.988v-.175zm3.52 0c0-.872-.558-1.5-1.394-1.5-.837 0-1.394.663-1.394 1.5s.523 1.5 1.394 1.5c.87 0 1.393-.628 1.393-1.5z"/>
    </g>
</svg>
