<svg xmlns="http://www.w3.org/2000/svg" width="15" height="15" viewBox="0 0 15 15">
    <path fill="#718886" fill-rule="nonzero" d="M14.993 11.838a.726.726 0 0 1-.222.635l-2.112 2.098c-.096.106-.22.196-.374.27a1.541 1.541 0 0 1-.452.143l-.095.008a2.16 2.16 0 0 1-.207.008c-.201 0-.527-.034-.976-.103-.45-.07-1-.239-1.652-.509-.651-.27-1.39-.675-2.215-1.215-.826-.54-1.704-1.282-2.636-2.225A17.409 17.409 0 0 1 2.21 8.851a14.946 14.946 0 0 1-1.175-1.852 9.974 9.974 0 0 1-.667-1.54 8.182 8.182 0 0 1-.302-1.193 3.938 3.938 0 0 1-.063-.786c.01-.19.016-.297.016-.318.02-.148.068-.3.142-.453a1.19 1.19 0 0 1 .27-.373L2.543.222A.7.7 0 0 1 3.052 0c.137 0 .259.04.365.12.106.079.196.177.27.293L5.386 3.64c.095.17.122.355.08.556a.99.99 0 0 1-.27.508l-.779.779a.265.265 0 0 0-.055.103.392.392 0 0 0-.024.12c.042.222.137.476.286.762.127.254.322.564.587.93.265.365.64.786 1.128 1.263.476.487.9.866 1.27 1.136.37.27.68.469.929.596s.44.204.572.23l.198.04a.378.378 0 0 0 .103-.024.265.265 0 0 0 .103-.055l.906-.922a.972.972 0 0 1 .667-.254.83.83 0 0 1 .428.095h.016l3.065 1.811c.222.138.354.313.397.525z"/>
</svg>
