<svg xmlns="http://www.w3.org/2000/svg" width="28" height="32" viewBox="0 0 28 32">
    <g fill="none" fill-rule="evenodd">
        <path fill="#DF001B" d="M2 0h16.993L28 8.972V30a2 2 0 0 1-2 2H2a2 2 0 0 1-2-2V2a2 2 0 0 1 2-2z"/>
        <path fill="#A10014" d="M28 9h-6.994A2.006 2.006 0 0 1 19 6.996V0l9 9z"/>
        <path fill="#FFF" fill-rule="nonzero" d="M20.5 15.153c.336 0 .5-.292.5-.576 0-.293-.171-.577-.5-.577h-1.91c-.373 0-.58.31-.58.651v4.698c0 .419.237.651.56.651.32 0 .56-.232.56-.651v-1.29h1.154c.359 0 .538-.293.538-.585 0-.285-.18-.569-.538-.569H19.13v-1.752H20.5zM14.046 14h-1.398c-.38 0-.648.26-.648.647v4.706c0 .48.387.63.664.63h1.467c1.735 0 2.881-1.143 2.881-2.907 0-1.866-1.08-3.076-2.966-3.076zm.067 4.823h-.852V15.16h.768c1.162 0 1.667.78 1.667 1.858 0 1.007-.496 1.805-1.583 1.805zM8.993 14H7.61c-.392 0-.61.258-.61.651v4.698c0 .419.25.651.586.651.337 0 .587-.232.587-.651v-1.372h.868c1.07 0 1.955-.76 1.955-1.98 0-1.195-.853-1.997-2.002-1.997zm-.022 2.875h-.798v-1.772h.798c.492 0 .806.385.806.887-.001.5-.314.885-.806.885z"/>
    </g>
</svg>
